<?xml version="1.0" encoding="utf-8"?>
<!-- Generator: Adobe Illustrator 25.2.0, SVG Export Plug-In . SVG Version: 6.00 Build 0)  -->
<svg version="1.1" id="Layer_1" xmlns="http://www.w3.org/2000/svg" xmlns:xlink="http://www.w3.org/1999/xlink" x="0px" y="0px"
	 viewBox="0 0 512 512" style="enable-background:new 0 0 512 512;" xml:space="preserve">
<style type="text/css">
	.st0{fill-rule:evenodd;clip-rule:evenodd;}
</style>
<desc>Created with Sketch.</desc>
<g id="Assets">
	<g id="Artboard" transform="translate(-3524.000000, -958.000000)">
		<path class="st0" d="M4028.7,1427.2l-146.5-146.5c26.7-34,42.6-76.9,42.6-123.4c0-110.5-89.9-200.4-200.4-200.4
			c-110.5,0-200.4,89.9-200.4,200.4c0,110.5,89.9,200.4,200.4,200.4c46,0,88.4-15.6,122.2-41.7l146.6,146.6
			c4.9,4.9,11.3,7.3,17.7,7.3s12.8-2.4,17.7-7.3C4038.4,1452.9,4038.4,1437,4028.7,1427.2z M3574.1,1157.4
			c0-82.9,67.4-150.3,150.3-150.3c82.9,0,150.3,67.4,150.3,150.3c0,82.9-67.4,150.3-150.3,150.3
			C3641.5,1307.7,3574.1,1240.3,3574.1,1157.4z"/>
	</g>
</g>
</svg>
